<svg width="29" height="31" viewBox="0 0 29 31" fill="none" xmlns="http://www.w3.org/2000/svg">
<g filter="url(#filter0_d_369_16588)">
<path fill-rule="evenodd" clip-rule="evenodd" d="M16.2461 4.49612C15.8008 2.66796 13.1992 2.66796 12.7539 4.49612C12.6874 4.77083 12.557 5.02596 12.3732 5.24075C12.1895 5.45554 11.9577 5.62392 11.6966 5.73219C11.4355 5.84046 11.1526 5.88556 10.8708 5.86382C10.5889 5.84208 10.3162 5.75411 10.0749 5.60707C8.467 4.62737 6.6271 6.46724 7.60682 8.07508C8.23965 9.11337 7.6783 10.4681 6.49702 10.7552C4.66766 11.1993 4.66766 13.8021 6.49702 14.2451C6.7718 14.3117 7.02698 14.4422 7.24178 14.626C7.45657 14.8099 7.62491 15.0419 7.73308 15.3031C7.84125 15.5643 7.88619 15.8474 7.86425 16.1293C7.84231 16.4112 7.7541 16.6839 7.60682 16.9252C6.6271 18.5331 8.467 20.3729 10.0749 19.3932C10.3162 19.2459 10.5889 19.1577 10.8708 19.1358C11.1527 19.1139 11.4358 19.1588 11.697 19.267C11.9582 19.3751 12.1902 19.5435 12.3741 19.7583C12.5579 19.973 12.6885 20.2282 12.755 20.503C13.1992 22.3323 15.802 22.3323 16.245 20.503C16.3118 20.2284 16.4424 19.9734 16.6263 19.7587C16.8102 19.5441 17.0422 19.3758 17.3033 19.2677C17.5645 19.1596 17.8474 19.1146 18.1292 19.1364C18.4111 19.1582 18.6837 19.2462 18.9251 19.3932C20.533 20.3729 22.3729 18.5331 21.3932 16.9252C21.2462 16.6838 21.1582 16.4111 21.1364 16.1293C21.1145 15.8475 21.1595 15.5646 21.2677 15.3034C21.3758 15.0423 21.544 14.8103 21.7587 14.6264C21.9733 14.4425 22.2283 14.3119 22.503 14.2451C24.3323 13.8009 24.3323 11.1982 22.503 10.7552C22.2282 10.6886 21.973 10.5581 21.7582 10.3742C21.5434 10.1904 21.3751 9.95841 21.2669 9.69719C21.1588 9.43596 21.1138 9.15289 21.1358 8.87101C21.1577 8.58913 21.2459 8.31642 21.3932 8.07508C22.3729 6.46724 20.533 4.62737 18.9251 5.60707C18.6838 5.75435 18.4111 5.84256 18.1292 5.8645C17.8473 5.88644 17.5642 5.8415 17.303 5.73333C17.0418 5.62516 16.8098 5.45683 16.6259 5.24204C16.4421 5.02725 16.3115 4.77207 16.245 4.49729L16.2461 4.49612Z" stroke="#6769FE" stroke-width="1.8"/>
<path d="M16.5833 12.5C16.5833 13.6506 15.6506 14.5833 14.5 14.5833C13.3494 14.5833 12.4167 13.6506 12.4167 12.5C12.4167 11.3494 13.3494 10.4167 14.5 10.4167C15.6506 10.4167 16.5833 11.3494 16.5833 12.5Z" stroke="#6769FE" stroke-width="1.8"/>
</g>
<defs>
<filter id="filter0_d_369_16588" x="-2" y="0" width="33" height="33" filterUnits="userSpaceOnUse" color-interpolation-filters="sRGB">
<feFlood flood-opacity="0" result="BackgroundImageFix"/>
<feColorMatrix in="SourceAlpha" type="matrix" values="0 0 0 0 0 0 0 0 0 0 0 0 0 0 0 0 0 0 127 0" result="hardAlpha"/>
<feOffset dy="4"/>
<feGaussianBlur stdDeviation="2"/>
<feComposite in2="hardAlpha" operator="out"/>
<feColorMatrix type="matrix" values="0 0 0 0 0 0 0 0 0 0 0 0 0 0 0 0 0 0 0.25 0"/>
<feBlend mode="normal" in2="BackgroundImageFix" result="effect1_dropShadow_369_16588"/>
<feBlend mode="normal" in="SourceGraphic" in2="effect1_dropShadow_369_16588" result="shape"/>
</filter>
</defs>
</svg>
